<?xml version="1.0" encoding="UTF-8" standalone="no"?>
<svg
   xmlns:dc="http://purl.org/dc/elements/1.1/"
   xmlns:cc="http://creativecommons.org/ns#"
   xmlns:rdf="http://www.w3.org/1999/02/22-rdf-syntax-ns#"
   xmlns:svg="http://www.w3.org/2000/svg"
   xmlns="http://www.w3.org/2000/svg"
   xmlns:sodipodi="http://sodipodi.sourceforge.net/DTD/sodipodi-0.dtd"
   xmlns:inkscape="http://www.inkscape.org/namespaces/inkscape"
   width="135mm"
   height="85mm"
   viewBox="0 0 135000 85000"
   version="1.1"
   id="svg131"
   sodipodi:docname="Device_layer_2.svg"
   inkscape:version="0.92.1 r15371">
  <metadata
     id="metadata135">
    <rdf:RDF>
      <cc:Work
         rdf:about="">
        <dc:format>image/svg+xml</dc:format>
        <dc:type
           rdf:resource="http://purl.org/dc/dcmitype/StillImage" />
      </cc:Work>
    </rdf:RDF>
  </metadata>
  <sodipodi:namedview
     pagecolor="#ffffff"
     bordercolor="#666666"
     borderopacity="1"
     objecttolerance="10"
     gridtolerance="10"
     guidetolerance="10"
     inkscape:pageopacity="0"
     inkscape:pageshadow="2"
     inkscape:window-width="1366"
     inkscape:window-height="705"
     id="namedview133"
     showgrid="false"
     inkscape:zoom="1.5909466"
     inkscape:cx="271.40734"
     inkscape:cy="161.65551"
     inkscape:window-x="-8"
     inkscape:window-y="-8"
     inkscape:window-maximized="1"
     inkscape:current-layer="svg131" />
  <defs
     id="defs47">
    <radialGradient
       cx="65300"
       cy="21800"
       r="150"
       gradientUnits="userSpaceOnUse"
       id="color-1">
      <stop
         offset="1"
         stop-color="#f44336"
         id="stop2" />
      <stop
         offset="1"
         stop-color="#b71c1c"
         id="stop4" />
    </radialGradient>
    <radialGradient
       cx="74900"
       cy="32600"
       r="150"
       gradientUnits="userSpaceOnUse"
       id="color-2">
      <stop
         offset="1"
         stop-color="#f44336"
         id="stop7" />
      <stop
         offset="1"
         stop-color="#b71c1c"
         id="stop9" />
    </radialGradient>
    <radialGradient
       cx="35760"
       cy="27320"
       r="150"
       gradientUnits="userSpaceOnUse"
       id="color-3">
      <stop
         offset="1"
         stop-color="#f44336"
         id="stop12" />
      <stop
         offset="1"
         stop-color="#b71c1c"
         id="stop14" />
    </radialGradient>
    <radialGradient
       cx="61850"
       cy="24300"
       r="150"
       gradientUnits="userSpaceOnUse"
       id="color-4">
      <stop
         offset="1"
         stop-color="#f44336"
         id="stop17" />
      <stop
         offset="1"
         stop-color="#b71c1c"
         id="stop19" />
    </radialGradient>
    <radialGradient
       cx="85400"
       cy="17500"
       r="2020"
       gradientUnits="userSpaceOnUse"
       id="color-5">
      <stop
         offset="1"
         stop-color="#ef5350"
         id="stop22" />
      <stop
         offset="1"
         stop-color="#b71c1c"
         id="stop24" />
    </radialGradient>
    <radialGradient
       cx="35500"
       cy="52300"
       r="2020"
       gradientUnits="userSpaceOnUse"
       id="color-6">
      <stop
         offset="1"
         stop-color="#ef5350"
         id="stop27" />
      <stop
         offset="1"
         stop-color="#b71c1c"
         id="stop29" />
    </radialGradient>
    <radialGradient
       cx="79000"
       cy="48000"
       r="2020"
       gradientUnits="userSpaceOnUse"
       id="color-7">
      <stop
         offset="1"
         stop-color="#ef5350"
         id="stop32" />
      <stop
         offset="1"
         stop-color="#b71c1c"
         id="stop34" />
    </radialGradient>
    <radialGradient
       cx="91000"
       cy="32000"
       r="2020"
       gradientUnits="userSpaceOnUse"
       id="color-8">
      <stop
         offset="1"
         stop-color="#ef5350"
         id="stop37" />
      <stop
         offset="1"
         stop-color="#b71c1c"
         id="stop39" />
    </radialGradient>
    <radialGradient
       cx="30300"
       cy="35400"
       r="2020"
       gradientUnits="userSpaceOnUse"
       id="color-9">
      <stop
         offset="1"
         stop-color="#ef5350"
         id="stop42" />
      <stop
         offset="1"
         stop-color="#b71c1c"
         id="stop44" />
    </radialGradient>
  </defs>
  <g
     stroke-width="none"
     stroke-miterlimit="10"
     font-weight="normal"
     font-size="12"
     mix-blend-mode="normal"
     id="g129"
     transform="matrix(-1,0,0,1,135000,0)"
     style="font-weight:normal;font-size:12px;font-family:sans-serif;text-anchor:start;mix-blend-mode:normal;fill:none;stroke:none;stroke-linecap:butt;stroke-linejoin:miter;stroke-miterlimit:10;stroke-dasharray:none;stroke-dashoffset:0">
    <polygon
       points="65270.129,21653.004 83970.129,17853.004 84029.871,18146.996 65329.871,21946.996 "
       id="polygon49"
       style="fill:#b71c1c;stroke-width:0" />
    <polygon
       points="65150,23300 65150,21800 65450,21800 65450,23300 "
       id="polygon51"
       style="fill:#b71c1c;stroke-width:0" />
    <polygon
       points="60132.797,46746.371 36032.797,52146.371 35967.203,51853.629 60067.203,46453.629 "
       id="polygon53"
       style="fill:#b71c1c;stroke-width:0" />
    <polygon
       points="61889.099,35179.33 79089.099,47879.33 78910.901,48120.67 61710.901,35420.67 "
       id="polygon55"
       style="fill:#b71c1c;stroke-width:0" />
    <polygon
       points="74894.044,32450.118 89994.044,31850.118 90005.956,32149.882 74905.956,32749.882 "
       id="polygon57"
       style="fill:#b71c1c;stroke-width:0" />
    <path
       d="m 66399.824,32740 c -82.843,-0.1 -149.921,-67.334 -149.824,-150.176 v 0 c 0.1,-82.843 67.334,-149.921 150.176,-149.824 l 8500,10 c 82.843,0.1 149.921,67.334 149.824,150.176 v 0 c -0.1,82.843 -67.334,149.921 -150.176,149.824 z"
       id="path59"
       inkscape:connector-curvature="0"
       style="fill:#b71c1c;stroke-width:0" />
    <polygon
       points="71650,32600 71650,34000 71350,34000 71350,32600 "
       id="polygon61"
       style="fill:#b71c1c;stroke-width:0" />
    <polygon
       points="66550,30800 66550,32600 66250,32600 66250,30800 "
       id="polygon63"
       style="fill:#b71c1c;stroke-width:0" />
    <polygon
       points="35882.159,27407.047 31122.159,34087.047 30877.841,33912.953 35637.841,27232.953 "
       id="polygon65"
       style="fill:#b71c1c;stroke-width:0" />
    <polygon
       points="49450,29000 49450,27300 49750,27300 49750,29000 "
       id="polygon67"
       style="fill:#b71c1c;stroke-width:0" />
    <polygon
       points="52700.619,27399.999 35750.619,27469.999 35749.381,27170.001 52699.381,27100.001 "
       id="polygon69"
       style="fill:#b71c1c;stroke-width:0" />
    <polygon
       points="52850,25400 52850,27400 52550,27400 52550,25400 "
       id="polygon71"
       style="fill:#b71c1c;stroke-width:0" />
    <polygon
       points="38000,-3150 38000,-3150 38000,-2850 "
       id="polygon73"
       style="fill:#b71c1c;stroke-width:0" />
    <polygon
       points="61700,35300 61700,24400 62000,24400 62000,35300 "
       id="polygon75"
       style="fill:#b71c1c;stroke-width:0" />
    <polygon
       points="60100,35150 62000,35150 62000,35450 60100,35450 "
       id="polygon77"
       style="fill:#b71c1c;stroke-width:0" />
    <polygon
       points="60100,29750 62000,29750 62000,30050 60100,30050 "
       id="polygon79"
       style="fill:#b71c1c;stroke-width:0" />
    <polygon
       points="62000,29850 62000,29850 62000,30150 "
       id="polygon81"
       style="fill:#b71c1c;stroke-width:0" />
    <polygon
       points="60000,24150 62000,24150 62000,24450 60000,24450 "
       id="polygon83"
       style="fill:#b71c1c;stroke-width:0" />
    <path
       d="m 59400,47200.5 c -0.276,0 -0.5,-0.224 -0.5,-0.5 v -1300 c 0,-0.276 0.224,-0.5 0.5,-0.5 h 1200 c 0.276,0 0.5,0.224 0.5,0.5 v 1300 c 0,0.276 -0.224,0.5 -0.5,0.5 z"
       id="path85"
       inkscape:connector-curvature="0"
       style="fill:#b71c1c;stroke-width:0" />
    <path
       d="m 49000,29600.5 c -0.276,0 -0.5,-0.224 -0.5,-0.5 v -1200 c 0,-0.276 0.224,-0.5 0.5,-0.5 h 1300 c 0.276,0 0.5,0.224 0.5,0.5 v 1200 c 0,0.276 -0.224,0.5 -0.5,0.5 z"
       id="path87"
       inkscape:connector-curvature="0"
       style="fill:#b71c1c;stroke-width:0" />
    <path
       d="m 52100,25900.5 c -0.276,0 -0.5,-0.224 -0.5,-0.5 v -1200 c 0,-0.276 0.224,-0.5 0.5,-0.5 h 1300 c 0.276,0 0.5,0.224 0.5,0.5 v 1200 c 0,0.276 -0.224,0.5 -0.5,0.5 z"
       id="path89"
       inkscape:connector-curvature="0"
       style="fill:#b71c1c;stroke-width:0" />
    <path
       d="m 59500,25000.5 c -0.276,0 -0.5,-0.224 -0.5,-0.5 v -1300 c 0,-0.276 0.224,-0.5 0.5,-0.5 h 1200 c 0.276,0 0.5,0.224 0.5,0.5 v 1300 c 0,0.276 -0.224,0.5 -0.5,0.5 z"
       id="path91"
       inkscape:connector-curvature="0"
       style="fill:#b71c1c;stroke-width:0" />
    <path
       d="m 64600,23900.5 c -0.276,0 -0.5,-0.224 -0.5,-0.5 v -1200 c 0,-0.276 0.224,-0.5 0.5,-0.5 h 1300 c 0.276,0 0.5,0.224 0.5,0.5 v 1200 c 0,0.276 -0.224,0.5 -0.5,0.5 z"
       id="path93"
       inkscape:connector-curvature="0"
       style="fill:#b71c1c;stroke-width:0" />
    <path
       d="m 59600,30500.5 c -0.276,0 -0.5,-0.224 -0.5,-0.5 v -1200 c 0,-0.276 0.224,-0.5 0.5,-0.5 h 1100 c 0.276,0 0.5,0.224 0.5,0.5 v 1200 c 0,0.276 -0.224,0.5 -0.5,0.5 z"
       id="path95"
       inkscape:connector-curvature="0"
       style="fill:#b71c1c;stroke-width:0" />
    <path
       d="m 65800,31400.5 c -0.276,0 -0.5,-0.224 -0.5,-0.5 v -1200 c 0,-0.276 0.224,-0.5 0.5,-0.5 h 1300 c 0.276,0 0.5,0.224 0.5,0.5 v 1200 c 0,0.276 -0.224,0.5 -0.5,0.5 z"
       id="path97"
       inkscape:connector-curvature="0"
       style="fill:#b71c1c;stroke-width:0" />
    <path
       d="m 70900,34800.5 c -0.276,0 -0.5,-0.224 -0.5,-0.5 v -1200 c 0,-0.276 0.224,-0.5 0.5,-0.5 h 1300 c 0.276,0 0.5,0.224 0.5,0.5 v 1200 c 0,0.276 -0.224,0.5 -0.5,0.5 z"
       id="path99"
       inkscape:connector-curvature="0"
       style="fill:#b71c1c;stroke-width:0" />
    <path
       d="m 59500,35900.5 c -0.276,0 -0.5,-0.224 -0.5,-0.5 v -1300 c 0,-0.276 0.224,-0.5 0.5,-0.5 h 1200 c 0.276,0 0.5,0.224 0.5,0.5 v 1300 c 0,0.276 -0.224,0.5 -0.5,0.5 z"
       id="path101"
       inkscape:connector-curvature="0"
       style="fill:#b71c1c;stroke-width:0" />
    <polygon
       points="135000,400 0,400 0,-400 135000,-400 "
       id="polygon103"
       style="fill:#b71c1c;stroke-width:0" />
    <polygon
       points="134600,85000 134600,0 135400,0 135400,85000 "
       id="polygon105"
       style="fill:#b71c1c;stroke-width:0" />
    <polygon
       points="0,84600 135000,84600 135000,85400 0,85400 "
       id="polygon107"
       style="fill:#b71c1c;stroke-width:0" />
    <polygon
       points="400,0 400,85000 -400,85000 -400,0 "
       id="polygon109"
       style="fill:#b71c1c;stroke-width:0" />
    <path
       d="m 65150,21800 c 0,-82.843 67.157,-150 150,-150 82.843,0 150,67.157 150,150 0,82.843 -67.157,150 -150,150 -82.843,0 -150,-67.157 -150,-150 z"
       id="path111"
       style="fill:url(#color-1);stroke-width:1"
       inkscape:connector-curvature="0" />
    <path
       d="m 74750,32600 c 0,-82.843 67.157,-150 150,-150 82.843,0 150,67.157 150,150 0,82.843 -67.157,150 -150,150 -82.843,0 -150,-67.157 -150,-150 z"
       id="path113"
       style="fill:url(#color-2);stroke-width:1"
       inkscape:connector-curvature="0" />
    <path
       d="m 35610,27320 c 0,-82.843 67.157,-150 150,-150 82.843,0 150,67.157 150,150 0,82.843 -67.157,150 -150,150 -82.843,0 -150,-67.157 -150,-150 z"
       id="path115"
       style="fill:url(#color-3);stroke-width:1"
       inkscape:connector-curvature="0" />
    <path
       d="m 61700,24300 c 0,-82.843 67.157,-150 150,-150 82.843,0 150,67.157 150,150 0,82.843 -67.157,150 -150,150 -82.843,0 -150,-67.157 -150,-150 z"
       id="path117"
       style="fill:url(#color-4);stroke-width:1"
       inkscape:connector-curvature="0" />
    <path
       d="m 83380,17500 c 0,-1115.615 904.385,-2020 2020,-2020 1115.615,0 2020,904.385 2020,2020 0,1115.615 -904.385,2020 -2020,2020 -1115.615,0 -2020,-904.385 -2020,-2020 z"
       id="path119"
       style="fill:url(#color-5);stroke-width:1"
       inkscape:connector-curvature="0" />
    <path
       d="m 33480,52300 c 0,-1115.615 904.385,-2020 2020,-2020 1115.615,0 2020,904.385 2020,2020 0,1115.615 -904.385,2020 -2020,2020 -1115.615,0 -2020,-904.385 -2020,-2020 z"
       id="path121"
       style="fill:url(#color-6);stroke-width:1"
       inkscape:connector-curvature="0" />
    <path
       d="m 76980,48000 c 0,-1115.615 904.385,-2020 2020,-2020 1115.615,0 2020,904.385 2020,2020 0,1115.615 -904.385,2020 -2020,2020 -1115.615,0 -2020,-904.385 -2020,-2020 z"
       id="path123"
       style="fill:url(#color-7);stroke-width:1"
       inkscape:connector-curvature="0" />
    <path
       d="m 88980,32000 c 0,-1115.615 904.385,-2020 2020,-2020 1115.615,0 2020,904.385 2020,2020 0,1115.615 -904.385,2020 -2020,2020 -1115.615,0 -2020,-904.385 -2020,-2020 z"
       id="path125"
       style="fill:url(#color-8);stroke-width:1"
       inkscape:connector-curvature="0" />
    <path
       d="m 28280,35400 c 0,-1115.615 904.385,-2020 2020,-2020 1115.615,0 2020,904.385 2020,2020 0,1115.615 -904.385,2020 -2020,2020 -1115.615,0 -2020,-904.385 -2020,-2020 z"
       id="path127"
       style="fill:url(#color-9);stroke-width:1"
       inkscape:connector-curvature="0" />
  </g>
</svg>
