<svg width="135mm" height="85mm" viewBox="0 0 135000 85000" xmlns="http://www.w3.org/2000/svg"><defs><radialGradient cx="70000" cy="30800" r="250" gradientUnits="userSpaceOnUse" id="color-1"><stop offset="1" stop-color="#3f51b5"/><stop offset="1" stop-color="#1a237e"/></radialGradient><radialGradient cx="45100" cy="25300" r="250" gradientUnits="userSpaceOnUse" id="color-2"><stop offset="1" stop-color="#3f51b5"/><stop offset="1" stop-color="#1a237e"/></radialGradient><radialGradient cx="60000" cy="40000" r="3000" gradientUnits="userSpaceOnUse" id="color-3"><stop offset="0.4" stop-color="#3f51b5"/><stop offset="0.4" stop-color="#1a237e"/></radialGradient><radialGradient cx="39900" cy="29000" r="1010" gradientUnits="userSpaceOnUse" id="color-4"><stop offset="1" stop-color="#5c6bc0"/><stop offset="1" stop-color="#1a237e"/></radialGradient><radialGradient cx="71400" cy="23300" r="1010" gradientUnits="userSpaceOnUse" id="color-5"><stop offset="1" stop-color="#5c6bc0"/><stop offset="1" stop-color="#1a237e"/></radialGradient><radialGradient cx="79500" cy="34200" r="1010" gradientUnits="userSpaceOnUse" id="color-6"><stop offset="1" stop-color="#5c6bc0"/><stop offset="1" stop-color="#1a237e"/></radialGradient><radialGradient cx="60000" cy="60000" r="2020" gradientUnits="userSpaceOnUse" id="color-7"><stop offset="1" stop-color="#5c6bc0"/><stop offset="1" stop-color="#1a237e"/></radialGradient><radialGradient cx="32500" cy="20300" r="2020" gradientUnits="userSpaceOnUse" id="color-8"><stop offset="1" stop-color="#5c6bc0"/><stop offset="1" stop-color="#1a237e"/></radialGradient><radialGradient cx="86000" cy="26000" r="2020" gradientUnits="userSpaceOnUse" id="color-9"><stop offset="1" stop-color="#5c6bc0"/><stop offset="1" stop-color="#1a237e"/></radialGradient><radialGradient cx="60100" cy="17100" r="2020" gradientUnits="userSpaceOnUse" id="color-10"><stop offset="1" stop-color="#5c6bc0"/><stop offset="1" stop-color="#1a237e"/></radialGradient></defs><g fill="none" stroke="none" stroke-width="none" stroke-linecap="butt" stroke-linejoin="miter" stroke-miterlimit="10" stroke-dasharray="" stroke-dashoffset="0" font-family="sans-serif" font-weight="normal" font-size="12" text-anchor="start" mix-blend-mode="normal"><polygon points="59750,47000 60250,47000 60250,61000 59750,61000" fill="#1a237e" stroke-width="0"/><polygon points="71900,34450 71900,33950 79100,33950 79100,34450" fill="#1a237e" stroke-width="0"/><path d="M71700,34700.5c-0.27614,0 -0.5,-0.22386 -0.5,-0.5l0,-1000c0,-0.27614 0.22386,-0.5 0.5,-0.5l400,0c0.27614,0 0.5,0.22386 0.5,0.5l0,1000c0,0.27614 -0.22386,0.5 -0.5,0.5z" fill="#1a237e" stroke-width="0"/><path d="M71000,34700.5c-0.27614,0 -0.5,-0.22386 -0.5,-0.5l0,-1000c0,-0.27614 0.22386,-0.5 0.5,-0.5l400,0c0.27614,0 0.5,0.22386 0.5,0.5l0,1000c0,0.27614 -0.22386,0.5 -0.5,0.5z" fill="#1a237e" stroke-width="0"/><polygon points="49200,28750 49200,29250 40400,29250 40400,28750" fill="#1a237e" stroke-width="0"/><polygon points="45193.762,25068.24865 45006.238,25531.75135 31906.238,20231.75135 32093.762,19768.24865" fill="#1a237e" stroke-width="0"/><polygon points="59750,42300 60250,42300 60250,46200 59750,46200" fill="#1a237e" stroke-width="0"/><path d="M59500,46400.5c-0.27614,0 -0.5,-0.22386 -0.5,-0.5l0,-400c0,-0.27614 0.22386,-0.5 0.5,-0.5l1000,0c0.27614,0 0.5,0.22386 0.5,0.5l0,400c0,0.27614 -0.22386,0.5 -0.5,0.5z" fill="#1a237e" stroke-width="0"/><path d="M59500,47100.5c-0.27614,0 -0.5,-0.22386 -0.5,-0.5l0,-400c0,-0.27614 0.22386,-0.5 0.5,-0.5l1000,0c0.27614,0 0.5,0.22386 0.5,0.5l0,400c0,0.27614 -0.22386,0.5 -0.5,0.5z" fill="#1a237e" stroke-width="0"/><polygon points="0,20250 0,19750 0,19750 0,20250" fill="#1a237e" stroke-width="0"/><polygon points="60102.71477,34549.98526 60097.28523,34050.01474 71147.28523,33930.01474 71152.71477,34429.98526" fill="#1a237e" stroke-width="0"/><polygon points="65600,23550 65600,23050 71000,23050 71000,23550" fill="#1a237e" stroke-width="0"/><polygon points="70071.83697,31039.45657 69928.16303,30560.54343 85928.16303,25760.54343 86071.83697,26239.45657" fill="#1a237e" stroke-width="0"/><polygon points="66800,31050 66800,30550 70000,30550 70000,31050" fill="#1a237e" stroke-width="0"/><path d="M66600,31300.5c-0.27614,0 -0.5,-0.22386 -0.5,-0.5l0,-1000c0,-0.27614 0.22386,-0.5 0.5,-0.5l400,0c0.27614,0 0.5,0.22386 0.5,0.5l0,1000c0,0.27614 -0.22386,0.5 -0.5,0.5z" fill="#1a237e" stroke-width="0"/><path d="M65900,31300.5c-0.27614,0 -0.5,-0.22386 -0.5,-0.5l0,-1000c0,-0.27614 0.22386,-0.5 0.5,-0.5l400,0c0.27614,0 0.5,0.22386 0.5,0.5l0,1000c0,0.27614 -0.22386,0.5 -0.5,0.5z" fill="#1a237e" stroke-width="0"/><polygon points="60100,31050 60100,30550 66000,30550 66000,31050" fill="#1a237e" stroke-width="0"/><path d="M65400,23800.5c-0.27614,0 -0.5,-0.22386 -0.5,-0.5l0,-1000c0,-0.27614 0.22386,-0.5 0.5,-0.5l400,0c0.27614,0 0.5,0.22386 0.5,0.5l0,1000c0,0.27614 -0.22386,0.5 -0.5,0.5z" fill="#1a237e" stroke-width="0"/><path d="M64700,23800.5c-0.27614,0 -0.5,-0.22386 -0.5,-0.5l0,-1000c0,-0.27614 0.22386,-0.5 0.5,-0.5l400,0c0.27614,0 0.5,0.22386 0.5,0.5l0,1000c0,0.27614 -0.22386,0.5 -0.5,0.5z" fill="#1a237e" stroke-width="0"/><path d="M59600,35800.5c-0.27614,0 -0.5,-0.22386 -0.5,-0.5l0,-400c0,-0.27614 0.22386,-0.5 0.5,-0.5l1000,0c0.27614,0 0.5,0.22386 0.5,0.5l0,400c0,0.27614 -0.22386,0.5 -0.5,0.5z" fill="#1a237e" stroke-width="0"/><path d="M59600,35100.5c-0.27614,0 -0.5,-0.22386 -0.5,-0.5l0,-400c0,-0.27614 0.22386,-0.5 0.5,-0.5l1000,0c0.27614,0 0.5,0.22386 0.5,0.5l0,400c0,0.27614 -0.22386,0.5 -0.5,0.5z" fill="#1a237e" stroke-width="0"/><path d="M59600,24200.5c-0.27614,0 -0.5,-0.22386 -0.5,-0.5l0,-400c0,-0.27614 0.22386,-0.5 0.5,-0.5l1000,0c0.27614,0 0.5,0.22386 0.5,0.5l0,400c0,0.27614 -0.22386,0.5 -0.5,0.5z" fill="#1a237e" stroke-width="0"/><path d="M60100,24600.5c-0.27614,0 -0.5,-0.22386 -0.5,-0.5l0,0c0,-0.27614 0.22386,-0.5 0.5,-0.5l0,0c0.27614,0 0.5,0.22386 0.5,0.5l0,0c0,0.27614 -0.22386,0.5 -0.5,0.5z" fill="#1a237e" stroke-width="0"/><path d="M59700,30400.5c-0.27614,0 -0.5,-0.22386 -0.5,-0.5l0,-400c0,-0.27614 0.22386,-0.5 0.5,-0.5l900,0c0.27614,0 0.5,0.22386 0.5,0.5l0,400c0,0.27614 -0.22386,0.5 -0.5,0.5z" fill="#1a237e" stroke-width="0"/><path d="M59700,29700.5c-0.27614,0 -0.5,-0.22386 -0.5,-0.5l0,-400c0,-0.27614 0.22386,-0.5 0.5,-0.5l900,0c0.27614,0 0.5,0.22386 0.5,0.5l0,400c0,0.27614 -0.22386,0.5 -0.5,0.5z" fill="#1a237e" stroke-width="0"/><path d="M52900,25800.5c-0.27614,0 -0.5,-0.22386 -0.5,-0.5l0,-1000c0,-0.27614 0.22386,-0.5 0.5,-0.5l400,0c0.27614,0 0.5,0.22386 0.5,0.5l0,1000c0,0.27614 -0.22386,0.5 -0.5,0.5z" fill="#1a237e" stroke-width="0"/><path d="M52200,25800.5c-0.27614,0 -0.5,-0.22386 -0.5,-0.5l0,-1000c0,-0.27614 0.22386,-0.5 0.5,-0.5l400,0c0.27614,0 0.5,0.22386 0.5,0.5l0,1000c0,0.27614 -0.22386,0.5 -0.5,0.5z" fill="#1a237e" stroke-width="0"/><path d="M49800,29500.5c-0.27614,0 -0.5,-0.22386 -0.5,-0.5l0,-1000c0,-0.27614 0.22386,-0.5 0.5,-0.5l400,0c0.27614,0 0.5,0.22386 0.5,0.5l0,1000c0,0.27614 -0.22386,0.5 -0.5,0.5z" fill="#1a237e" stroke-width="0"/><path d="M49100,29500.5c-0.27614,0 -0.5,-0.22386 -0.5,-0.5l0,-1000c0,-0.27614 0.22386,-0.5 0.5,-0.5l400,0c0.27614,0 0.5,0.22386 0.5,0.5l0,1000c0,0.27614 -0.22386,0.5 -0.5,0.5z" fill="#1a237e" stroke-width="0"/><path d="M59600,24900.5c-0.27614,0 -0.5,-0.22386 -0.5,-0.5l0,-400c0,-0.27614 0.22386,-0.5 0.5,-0.5l1000,0c0.27614,0 0.5,0.22386 0.5,0.5l0,400c0,0.27614 -0.22386,0.5 -0.5,0.5z" fill="#1a237e" stroke-width="0"/><polygon points="60000,28750 60000,29250 50000,29250 50000,28750" fill="#1a237e" stroke-width="0"/><polygon points="52400,25050 52400,25550 45100,25550 45100,25050" fill="#1a237e" stroke-width="0"/><polygon points="60100,25050 60100,25550 53100,25550 53100,25050" fill="#1a237e" stroke-width="0"/><polygon points="66700,29050 66700,28550 66700,28550 66700,29050" fill="#1a237e" stroke-width="0"/><polygon points="60350,24100 59850,24100 59850,18000 60350,18000" fill="#1a237e" stroke-width="0"/><polygon points="60100,23550 60100,23050 65000,23050 65000,23550" fill="#1a237e" stroke-width="0"/><polygon points="60350,29400 59850,29400 59850,24800 60350,24800" fill="#1a237e" stroke-width="0"/><path d="M59700,29600.5c-0.27614,0 -0.5,-0.22386 -0.5,-0.5l0,-300c0,-0.27614 0.22386,-0.5 0.5,-0.5l800,0c0.27614,0 0.5,0.22386 0.5,0.5l0,300c0,0.27614 -0.22386,0.5 -0.5,0.5z" fill="#1a237e" stroke-width="0"/><polygon points="60350,35000 59850,35000 59850,30100 60350,30100" fill="#1a237e" stroke-width="0"/><polygon points="59850,35600 60350,35600 60350,37100 59850,37100" fill="#1a237e" stroke-width="0"/><polygon points="400,85000 -400,85000 -400,0 400,0" fill="#1a237e" stroke-width="0"/><polygon points="135000,84600 135000,85400 0,85400 0,84600" fill="#1a237e" stroke-width="0"/><polygon points="134600,0 135400,0 135400,85000 134600,85000" fill="#1a237e" stroke-width="0"/><polygon points="0,400 0,-400 135000,-400 135000,400" fill="#1a237e" stroke-width="0"/><path d="M69750,30800c0,-138.07119 111.92881,-250 250,-250c138.07119,0 250,111.92881 250,250c0,138.07119 -111.92881,250 -250,250c-138.07119,0 -250,-111.92881 -250,-250z" fill="url(#color-1)" stroke-width="1"/><path d="M44850,25300c0,-138.07119 111.92881,-250 250,-250c138.07119,0 250,111.92881 250,250c0,138.07119 -111.92881,250 -250,250c-138.07119,0 -250,-111.92881 -250,-250z" fill="url(#color-2)" stroke-width="1"/><path d="M57000,40000c0,-1656.85425 1343.14575,-3000 3000,-3000c1656.85425,0 3000,1343.14575 3000,3000c0,1656.85425 -1343.14575,3000 -3000,3000c-1656.85425,0 -3000,-1343.14575 -3000,-3000z" fill="url(#color-3)" stroke-width="1"/><path d="M38890,29000c0,-557.8076 452.1924,-1010 1010,-1010c557.8076,0 1010,452.1924 1010,1010c0,557.8076 -452.1924,1010 -1010,1010c-557.8076,0 -1010,-452.1924 -1010,-1010z" fill="url(#color-4)" stroke-width="1"/><path d="M70390,23300c0,-557.8076 452.1924,-1010 1010,-1010c557.8076,0 1010,452.1924 1010,1010c0,557.8076 -452.1924,1010 -1010,1010c-557.8076,0 -1010,-452.1924 -1010,-1010z" fill="url(#color-5)" stroke-width="1"/><path d="M78490,34200c0,-557.8076 452.1924,-1010 1010,-1010c557.8076,0 1010,452.1924 1010,1010c0,557.8076 -452.1924,1010 -1010,1010c-557.8076,0 -1010,-452.1924 -1010,-1010z" fill="url(#color-6)" stroke-width="1"/><path d="M57980,60000c0,-1115.61519 904.38481,-2020 2020,-2020c1115.61519,0 2020,904.38481 2020,2020c0,1115.61519 -904.38481,2020 -2020,2020c-1115.61519,0 -2020,-904.38481 -2020,-2020z" fill="url(#color-7)" stroke-width="1"/><path d="M30480,20300c0,-1115.61519 904.38481,-2020 2020,-2020c1115.61519,0 2020,904.38481 2020,2020c0,1115.61519 -904.38481,2020 -2020,2020c-1115.61519,0 -2020,-904.38481 -2020,-2020z" fill="url(#color-8)" stroke-width="1"/><path d="M83980,26000c0,-1115.61519 904.38481,-2020 2020,-2020c1115.61519,0 2020,904.38481 2020,2020c0,1115.61519 -904.38481,2020 -2020,2020c-1115.61519,0 -2020,-904.38481 -2020,-2020z" fill="url(#color-9)" stroke-width="1"/><path d="M58080,17100c0,-1115.61519 904.38481,-2020 2020,-2020c1115.61519,0 2020,904.38481 2020,2020c0,1115.61519 -904.38481,2020 -2020,2020c-1115.61519,0 -2020,-904.38481 -2020,-2020z" fill="url(#color-10)" stroke-width="1"/></g></svg>