<?xml version="1.0" encoding="UTF-8" standalone="no"?>
<svg
   xmlns:dc="http://purl.org/dc/elements/1.1/"
   xmlns:cc="http://creativecommons.org/ns#"
   xmlns:rdf="http://www.w3.org/1999/02/22-rdf-syntax-ns#"
   xmlns:svg="http://www.w3.org/2000/svg"
   xmlns="http://www.w3.org/2000/svg"
   xmlns:sodipodi="http://sodipodi.sourceforge.net/DTD/sodipodi-0.dtd"
   xmlns:inkscape="http://www.inkscape.org/namespaces/inkscape"
   width="135mm"
   height="85mm"
   viewBox="0 0 135000 85000"
   version="1.1"
   id="svg164"
   sodipodi:docname="F_500_64.svg"
   inkscape:version="0.92.1 r15371">
  <metadata
     id="metadata168">
    <rdf:RDF>
      <cc:Work
         rdf:about="">
        <dc:format>image/svg+xml</dc:format>
        <dc:type
           rdf:resource="http://purl.org/dc/dcmitype/StillImage" />
        <dc:title></dc:title>
      </cc:Work>
    </rdf:RDF>
  </metadata>
  <sodipodi:namedview
     pagecolor="#ffffff"
     bordercolor="#666666"
     borderopacity="1"
     objecttolerance="10"
     gridtolerance="10"
     guidetolerance="10"
     inkscape:pageopacity="0"
     inkscape:pageshadow="2"
     inkscape:window-width="1366"
     inkscape:window-height="705"
     id="namedview166"
     showgrid="false"
     inkscape:zoom="1.5909466"
     inkscape:cx="234.64639"
     inkscape:cy="159.60433"
     inkscape:window-x="-8"
     inkscape:window-y="-8"
     inkscape:window-maximized="1"
     inkscape:current-layer="svg164" />
  <defs
     id="defs52">
    <radialGradient
       cx="70000"
       cy="30800"
       r="250"
       gradientUnits="userSpaceOnUse"
       id="color-1">
      <stop
         offset="1"
         stop-color="#3f51b5"
         id="stop2" />
      <stop
         offset="1"
         stop-color="#1a237e"
         id="stop4" />
    </radialGradient>
    <radialGradient
       cx="45100"
       cy="25300"
       r="250"
       gradientUnits="userSpaceOnUse"
       id="color-2">
      <stop
         offset="1"
         stop-color="#3f51b5"
         id="stop7" />
      <stop
         offset="1"
         stop-color="#1a237e"
         id="stop9" />
    </radialGradient>
    <radialGradient
       cx="60000"
       cy="40000"
       r="3000"
       gradientUnits="userSpaceOnUse"
       id="color-3">
      <stop
         offset="0.4"
         stop-color="#3f51b5"
         id="stop12" />
      <stop
         offset="0.4"
         stop-color="#1a237e"
         id="stop14" />
    </radialGradient>
    <radialGradient
       cx="39900"
       cy="29000"
       r="1010"
       gradientUnits="userSpaceOnUse"
       id="color-4">
      <stop
         offset="1"
         stop-color="#5c6bc0"
         id="stop17" />
      <stop
         offset="1"
         stop-color="#1a237e"
         id="stop19" />
    </radialGradient>
    <radialGradient
       cx="71400"
       cy="23300"
       r="1010"
       gradientUnits="userSpaceOnUse"
       id="color-5">
      <stop
         offset="1"
         stop-color="#5c6bc0"
         id="stop22" />
      <stop
         offset="1"
         stop-color="#1a237e"
         id="stop24" />
    </radialGradient>
    <radialGradient
       cx="79500"
       cy="34200"
       r="1010"
       gradientUnits="userSpaceOnUse"
       id="color-6">
      <stop
         offset="1"
         stop-color="#5c6bc0"
         id="stop27" />
      <stop
         offset="1"
         stop-color="#1a237e"
         id="stop29" />
    </radialGradient>
    <radialGradient
       cx="60000"
       cy="60000"
       r="2020"
       gradientUnits="userSpaceOnUse"
       id="color-7">
      <stop
         offset="1"
         stop-color="#5c6bc0"
         id="stop32" />
      <stop
         offset="1"
         stop-color="#1a237e"
         id="stop34" />
    </radialGradient>
    <radialGradient
       cx="32500"
       cy="20300"
       r="2020"
       gradientUnits="userSpaceOnUse"
       id="color-8">
      <stop
         offset="1"
         stop-color="#5c6bc0"
         id="stop37" />
      <stop
         offset="1"
         stop-color="#1a237e"
         id="stop39" />
    </radialGradient>
    <radialGradient
       cx="86000"
       cy="26000"
       r="2020"
       gradientUnits="userSpaceOnUse"
       id="color-9">
      <stop
         offset="1"
         stop-color="#5c6bc0"
         id="stop42" />
      <stop
         offset="1"
         stop-color="#1a237e"
         id="stop44" />
    </radialGradient>
    <radialGradient
       cx="60100"
       cy="17100"
       r="2020"
       gradientUnits="userSpaceOnUse"
       id="color-10">
      <stop
         offset="1"
         stop-color="#5c6bc0"
         id="stop47" />
      <stop
         offset="1"
         stop-color="#1a237e"
         id="stop49" />
    </radialGradient>
  </defs>
  <g
     fill="none"
     stroke="none"
     stroke-width="none"
     stroke-linecap="butt"
     stroke-linejoin="miter"
     stroke-miterlimit="10"
     stroke-dasharray=""
     stroke-dashoffset="0"
     font-family="sans-serif"
     font-weight="normal"
     font-size="12"
     text-anchor="start"
     mix-blend-mode="normal"
     id="g162">
    <polygon
       points="59750,47000 60250,47000 60250,61000 59750,61000"
       fill="#1a237e"
       stroke-width="0"
       id="polygon54" />
    <polygon
       points="71900,34450 71900,33950 79100,33950 79100,34450"
       fill="#1a237e"
       stroke-width="0"
       id="polygon56" />
    <path
       d="M71700,34700.5c-0.27614,0 -0.5,-0.22386 -0.5,-0.5l0,-1000c0,-0.27614 0.22386,-0.5 0.5,-0.5l400,0c0.27614,0 0.5,0.22386 0.5,0.5l0,1000c0,0.27614 -0.22386,0.5 -0.5,0.5z"
       fill="#1a237e"
       stroke-width="0"
       id="path58" />
    <path
       d="M71000,34700.5c-0.27614,0 -0.5,-0.22386 -0.5,-0.5l0,-1000c0,-0.27614 0.22386,-0.5 0.5,-0.5l400,0c0.27614,0 0.5,0.22386 0.5,0.5l0,1000c0,0.27614 -0.22386,0.5 -0.5,0.5z"
       fill="#1a237e"
       stroke-width="0"
       id="path60" />
    <polygon
       points="49200,28750 49200,29250 40400,29250 40400,28750"
       fill="#1a237e"
       stroke-width="0"
       id="polygon62" />
    <polygon
       points="45193.762,25068.24865 45006.238,25531.75135 31906.238,20231.75135 32093.762,19768.24865"
       fill="#1a237e"
       stroke-width="0"
       id="polygon64" />
    <polygon
       points="59750,42300 60250,42300 60250,46200 59750,46200"
       fill="#1a237e"
       stroke-width="0"
       id="polygon66" />
    <path
       d="M59500,46400.5c-0.27614,0 -0.5,-0.22386 -0.5,-0.5l0,-400c0,-0.27614 0.22386,-0.5 0.5,-0.5l1000,0c0.27614,0 0.5,0.22386 0.5,0.5l0,400c0,0.27614 -0.22386,0.5 -0.5,0.5z"
       fill="#1a237e"
       stroke-width="0"
       id="path68" />
    <path
       d="M59500,47100.5c-0.27614,0 -0.5,-0.22386 -0.5,-0.5l0,-400c0,-0.27614 0.22386,-0.5 0.5,-0.5l1000,0c0.27614,0 0.5,0.22386 0.5,0.5l0,400c0,0.27614 -0.22386,0.5 -0.5,0.5z"
       fill="#1a237e"
       stroke-width="0"
       id="path70" />
    <polygon
       points="0,20250 0,19750 0,19750 0,20250"
       fill="#1a237e"
       stroke-width="0"
       id="polygon72" />
    <polygon
       points="60102.71477,34549.98526 60097.28523,34050.01474 71147.28523,33930.01474 71152.71477,34429.98526"
       fill="#1a237e"
       stroke-width="0"
       id="polygon74" />
    <polygon
       points="65600,23550 65600,23050 71000,23050 71000,23550"
       fill="#1a237e"
       stroke-width="0"
       id="polygon76" />
    <polygon
       points="70071.83697,31039.45657 69928.16303,30560.54343 85928.16303,25760.54343 86071.83697,26239.45657"
       fill="#1a237e"
       stroke-width="0"
       id="polygon78" />
    <polygon
       points="66800,31050 66800,30550 70000,30550 70000,31050"
       fill="#1a237e"
       stroke-width="0"
       id="polygon80" />
    <path
       d="M66600,31300.5c-0.27614,0 -0.5,-0.22386 -0.5,-0.5l0,-1000c0,-0.27614 0.22386,-0.5 0.5,-0.5l400,0c0.27614,0 0.5,0.22386 0.5,0.5l0,1000c0,0.27614 -0.22386,0.5 -0.5,0.5z"
       fill="#1a237e"
       stroke-width="0"
       id="path82" />
    <path
       d="M65900,31300.5c-0.27614,0 -0.5,-0.22386 -0.5,-0.5l0,-1000c0,-0.27614 0.22386,-0.5 0.5,-0.5l400,0c0.27614,0 0.5,0.22386 0.5,0.5l0,1000c0,0.27614 -0.22386,0.5 -0.5,0.5z"
       fill="#1a237e"
       stroke-width="0"
       id="path84" />
    <polygon
       points="60100,31050 60100,30550 66000,30550 66000,31050"
       fill="#1a237e"
       stroke-width="0"
       id="polygon86" />
    <path
       d="M65400,23800.5c-0.27614,0 -0.5,-0.22386 -0.5,-0.5l0,-1000c0,-0.27614 0.22386,-0.5 0.5,-0.5l400,0c0.27614,0 0.5,0.22386 0.5,0.5l0,1000c0,0.27614 -0.22386,0.5 -0.5,0.5z"
       fill="#1a237e"
       stroke-width="0"
       id="path88" />
    <path
       d="M64700,23800.5c-0.27614,0 -0.5,-0.22386 -0.5,-0.5l0,-1000c0,-0.27614 0.22386,-0.5 0.5,-0.5l400,0c0.27614,0 0.5,0.22386 0.5,0.5l0,1000c0,0.27614 -0.22386,0.5 -0.5,0.5z"
       fill="#1a237e"
       stroke-width="0"
       id="path90" />
    <path
       d="M59600,35800.5c-0.27614,0 -0.5,-0.22386 -0.5,-0.5l0,-400c0,-0.27614 0.22386,-0.5 0.5,-0.5l1000,0c0.27614,0 0.5,0.22386 0.5,0.5l0,400c0,0.27614 -0.22386,0.5 -0.5,0.5z"
       fill="#1a237e"
       stroke-width="0"
       id="path92" />
    <path
       d="M59600,35100.5c-0.27614,0 -0.5,-0.22386 -0.5,-0.5l0,-400c0,-0.27614 0.22386,-0.5 0.5,-0.5l1000,0c0.27614,0 0.5,0.22386 0.5,0.5l0,400c0,0.27614 -0.22386,0.5 -0.5,0.5z"
       fill="#1a237e"
       stroke-width="0"
       id="path94" />
    <path
       d="M59600,24200.5c-0.27614,0 -0.5,-0.22386 -0.5,-0.5l0,-400c0,-0.27614 0.22386,-0.5 0.5,-0.5l1000,0c0.27614,0 0.5,0.22386 0.5,0.5l0,400c0,0.27614 -0.22386,0.5 -0.5,0.5z"
       fill="#1a237e"
       stroke-width="0"
       id="path96" />
    <path
       d="M60100,24600.5c-0.27614,0 -0.5,-0.22386 -0.5,-0.5l0,0c0,-0.27614 0.22386,-0.5 0.5,-0.5l0,0c0.27614,0 0.5,0.22386 0.5,0.5l0,0c0,0.27614 -0.22386,0.5 -0.5,0.5z"
       fill="#1a237e"
       stroke-width="0"
       id="path98" />
    <path
       d="M59700,30400.5c-0.27614,0 -0.5,-0.22386 -0.5,-0.5l0,-400c0,-0.27614 0.22386,-0.5 0.5,-0.5l900,0c0.27614,0 0.5,0.22386 0.5,0.5l0,400c0,0.27614 -0.22386,0.5 -0.5,0.5z"
       fill="#1a237e"
       stroke-width="0"
       id="path100" />
    <path
       d="M59700,29700.5c-0.27614,0 -0.5,-0.22386 -0.5,-0.5l0,-400c0,-0.27614 0.22386,-0.5 0.5,-0.5l900,0c0.27614,0 0.5,0.22386 0.5,0.5l0,400c0,0.27614 -0.22386,0.5 -0.5,0.5z"
       fill="#1a237e"
       stroke-width="0"
       id="path102" />
    <path
       d="M52900,25800.5c-0.27614,0 -0.5,-0.22386 -0.5,-0.5l0,-1000c0,-0.27614 0.22386,-0.5 0.5,-0.5l400,0c0.27614,0 0.5,0.22386 0.5,0.5l0,1000c0,0.27614 -0.22386,0.5 -0.5,0.5z"
       fill="#1a237e"
       stroke-width="0"
       id="path104" />
    <path
       d="M52200,25800.5c-0.27614,0 -0.5,-0.22386 -0.5,-0.5l0,-1000c0,-0.27614 0.22386,-0.5 0.5,-0.5l400,0c0.27614,0 0.5,0.22386 0.5,0.5l0,1000c0,0.27614 -0.22386,0.5 -0.5,0.5z"
       fill="#1a237e"
       stroke-width="0"
       id="path106" />
    <path
       d="M49800,29500.5c-0.27614,0 -0.5,-0.22386 -0.5,-0.5l0,-1000c0,-0.27614 0.22386,-0.5 0.5,-0.5l400,0c0.27614,0 0.5,0.22386 0.5,0.5l0,1000c0,0.27614 -0.22386,0.5 -0.5,0.5z"
       fill="#1a237e"
       stroke-width="0"
       id="path108" />
    <path
       d="M49100,29500.5c-0.27614,0 -0.5,-0.22386 -0.5,-0.5l0,-1000c0,-0.27614 0.22386,-0.5 0.5,-0.5l400,0c0.27614,0 0.5,0.22386 0.5,0.5l0,1000c0,0.27614 -0.22386,0.5 -0.5,0.5z"
       fill="#1a237e"
       stroke-width="0"
       id="path110" />
    <path
       d="M59600,24900.5c-0.27614,0 -0.5,-0.22386 -0.5,-0.5l0,-400c0,-0.27614 0.22386,-0.5 0.5,-0.5l1000,0c0.27614,0 0.5,0.22386 0.5,0.5l0,400c0,0.27614 -0.22386,0.5 -0.5,0.5z"
       fill="#1a237e"
       stroke-width="0"
       id="path112" />
    <polygon
       points="60000,28750 60000,29250 50000,29250 50000,28750"
       fill="#1a237e"
       stroke-width="0"
       id="polygon114" />
    <polygon
       points="52400,25050 52400,25550 45100,25550 45100,25050"
       fill="#1a237e"
       stroke-width="0"
       id="polygon116" />
    <polygon
       points="60100,25050 60100,25550 53100,25550 53100,25050"
       fill="#1a237e"
       stroke-width="0"
       id="polygon118" />
    <polygon
       points="66700,29050 66700,28550 66700,28550 66700,29050"
       fill="#1a237e"
       stroke-width="0"
       id="polygon120" />
    <polygon
       points="60350,24100 59850,24100 59850,18000 60350,18000"
       fill="#1a237e"
       stroke-width="0"
       id="polygon122" />
    <polygon
       points="60100,23550 60100,23050 65000,23050 65000,23550"
       fill="#1a237e"
       stroke-width="0"
       id="polygon124" />
    <polygon
       points="60350,29400 59850,29400 59850,24800 60350,24800"
       fill="#1a237e"
       stroke-width="0"
       id="polygon126" />
    <path
       d="M59700,29600.5c-0.27614,0 -0.5,-0.22386 -0.5,-0.5l0,-300c0,-0.27614 0.22386,-0.5 0.5,-0.5l800,0c0.27614,0 0.5,0.22386 0.5,0.5l0,300c0,0.27614 -0.22386,0.5 -0.5,0.5z"
       fill="#1a237e"
       stroke-width="0"
       id="path128" />
    <polygon
       points="60350,35000 59850,35000 59850,30100 60350,30100"
       fill="#1a237e"
       stroke-width="0"
       id="polygon130" />
    <polygon
       points="59850,35600 60350,35600 60350,37100 59850,37100"
       fill="#1a237e"
       stroke-width="0"
       id="polygon132" />
    <path
       d="M69750,30800c0,-138.07119 111.92881,-250 250,-250c138.07119,0 250,111.92881 250,250c0,138.07119 -111.92881,250 -250,250c-138.07119,0 -250,-111.92881 -250,-250z"
       fill="url(#color-1)"
       stroke-width="1"
       id="path142" />
    <path
       d="M44850,25300c0,-138.07119 111.92881,-250 250,-250c138.07119,0 250,111.92881 250,250c0,138.07119 -111.92881,250 -250,250c-138.07119,0 -250,-111.92881 -250,-250z"
       fill="url(#color-2)"
       stroke-width="1"
       id="path144" />
  </g>
</svg>
