<?xml version="1.0" encoding="UTF-8" standalone="no"?>
<svg
   xmlns:dc="http://purl.org/dc/elements/1.1/"
   xmlns:cc="http://creativecommons.org/ns#"
   xmlns:rdf="http://www.w3.org/1999/02/22-rdf-syntax-ns#"
   xmlns:svg="http://www.w3.org/2000/svg"
   xmlns="http://www.w3.org/2000/svg"
   xmlns:sodipodi="http://sodipodi.sourceforge.net/DTD/sodipodi-0.dtd"
   xmlns:inkscape="http://www.inkscape.org/namespaces/inkscape"
   width="135mm"
   height="85mm"
   viewBox="0 0 135000 85000"
   version="1.1"
   id="svg164"
   sodipodi:docname="Flow_Ports.svg"
   inkscape:version="0.92.1 r15371">
  <metadata
     id="metadata168">
    <rdf:RDF>
      <cc:Work
         rdf:about="">
        <dc:format>image/svg+xml</dc:format>
        <dc:type
           rdf:resource="http://purl.org/dc/dcmitype/StillImage" />
        <dc:title></dc:title>
      </cc:Work>
    </rdf:RDF>
  </metadata>
  <sodipodi:namedview
     pagecolor="#ffffff"
     bordercolor="#666666"
     borderopacity="1"
     objecttolerance="10"
     gridtolerance="10"
     guidetolerance="10"
     inkscape:pageopacity="0"
     inkscape:pageshadow="2"
     inkscape:window-width="1366"
     inkscape:window-height="705"
     id="namedview166"
     showgrid="false"
     inkscape:zoom="1.5909466"
     inkscape:cx="221.41763"
     inkscape:cy="155.50195"
     inkscape:window-x="-8"
     inkscape:window-y="-8"
     inkscape:window-maximized="1"
     inkscape:current-layer="svg164" />
  <defs
     id="defs52">
    <radialGradient
       cx="70000"
       cy="30800"
       r="250"
       gradientUnits="userSpaceOnUse"
       id="color-1">
      <stop
         offset="1"
         stop-color="#3f51b5"
         id="stop2" />
      <stop
         offset="1"
         stop-color="#1a237e"
         id="stop4" />
    </radialGradient>
    <radialGradient
       cx="45100"
       cy="25300"
       r="250"
       gradientUnits="userSpaceOnUse"
       id="color-2">
      <stop
         offset="1"
         stop-color="#3f51b5"
         id="stop7" />
      <stop
         offset="1"
         stop-color="#1a237e"
         id="stop9" />
    </radialGradient>
    <radialGradient
       cx="60000"
       cy="40000"
       r="3000"
       gradientUnits="userSpaceOnUse"
       id="color-3">
      <stop
         offset="0.4"
         stop-color="#3f51b5"
         id="stop12" />
      <stop
         offset="0.4"
         stop-color="#1a237e"
         id="stop14" />
    </radialGradient>
    <radialGradient
       cx="39900"
       cy="29000"
       r="1010"
       gradientUnits="userSpaceOnUse"
       id="color-4">
      <stop
         offset="1"
         stop-color="#5c6bc0"
         id="stop17" />
      <stop
         offset="1"
         stop-color="#1a237e"
         id="stop19" />
    </radialGradient>
    <radialGradient
       cx="71400"
       cy="23300"
       r="1010"
       gradientUnits="userSpaceOnUse"
       id="color-5">
      <stop
         offset="1"
         stop-color="#5c6bc0"
         id="stop22" />
      <stop
         offset="1"
         stop-color="#1a237e"
         id="stop24" />
    </radialGradient>
    <radialGradient
       cx="79500"
       cy="34200"
       r="1010"
       gradientUnits="userSpaceOnUse"
       id="color-6">
      <stop
         offset="1"
         stop-color="#5c6bc0"
         id="stop27" />
      <stop
         offset="1"
         stop-color="#1a237e"
         id="stop29" />
    </radialGradient>
    <radialGradient
       cx="60000"
       cy="60000"
       r="2020"
       gradientUnits="userSpaceOnUse"
       id="color-7">
      <stop
         offset="1"
         stop-color="#5c6bc0"
         id="stop32" />
      <stop
         offset="1"
         stop-color="#1a237e"
         id="stop34" />
    </radialGradient>
    <radialGradient
       cx="32500"
       cy="20300"
       r="2020"
       gradientUnits="userSpaceOnUse"
       id="color-8">
      <stop
         offset="1"
         stop-color="#5c6bc0"
         id="stop37" />
      <stop
         offset="1"
         stop-color="#1a237e"
         id="stop39" />
    </radialGradient>
    <radialGradient
       cx="86000"
       cy="26000"
       r="2020"
       gradientUnits="userSpaceOnUse"
       id="color-9">
      <stop
         offset="1"
         stop-color="#5c6bc0"
         id="stop42" />
      <stop
         offset="1"
         stop-color="#1a237e"
         id="stop44" />
    </radialGradient>
    <radialGradient
       cx="60100"
       cy="17100"
       r="2020"
       gradientUnits="userSpaceOnUse"
       id="color-10">
      <stop
         offset="1"
         stop-color="#5c6bc0"
         id="stop47" />
      <stop
         offset="1"
         stop-color="#1a237e"
         id="stop49" />
    </radialGradient>
  </defs>
  <g
     fill="none"
     stroke="none"
     stroke-width="none"
     stroke-linecap="butt"
     stroke-linejoin="miter"
     stroke-miterlimit="10"
     stroke-dasharray=""
     stroke-dashoffset="0"
     font-family="sans-serif"
     font-weight="normal"
     font-size="12"
     text-anchor="start"
     mix-blend-mode="normal"
     id="g162">
    <polygon
       points="0,20250 0,19750 0,19750 0,20250"
       fill="#1a237e"
       stroke-width="0"
       id="polygon72" />
    <polygon
       points="66700,29050 66700,28550 66700,28550 66700,29050"
       fill="#1a237e"
       stroke-width="0"
       id="polygon120" />
    <path
       d="M38890,29000c0,-557.8076 452.1924,-1010 1010,-1010c557.8076,0 1010,452.1924 1010,1010c0,557.8076 -452.1924,1010 -1010,1010c-557.8076,0 -1010,-452.1924 -1010,-1010z"
       fill="url(#color-4)"
       stroke-width="1"
       id="path148" />
    <path
       d="M70390,23300c0,-557.8076 452.1924,-1010 1010,-1010c557.8076,0 1010,452.1924 1010,1010c0,557.8076 -452.1924,1010 -1010,1010c-557.8076,0 -1010,-452.1924 -1010,-1010z"
       fill="url(#color-5)"
       stroke-width="1"
       id="path150" />
    <path
       d="M78490,34200c0,-557.8076 452.1924,-1010 1010,-1010c557.8076,0 1010,452.1924 1010,1010c0,557.8076 -452.1924,1010 -1010,1010c-557.8076,0 -1010,-452.1924 -1010,-1010z"
       fill="url(#color-6)"
       stroke-width="1"
       id="path152" />
    <path
       d="M57980,60000c0,-1115.61519 904.38481,-2020 2020,-2020c1115.61519,0 2020,904.38481 2020,2020c0,1115.61519 -904.38481,2020 -2020,2020c-1115.61519,0 -2020,-904.38481 -2020,-2020z"
       fill="url(#color-7)"
       stroke-width="1"
       id="path154" />
    <path
       d="M30480,20300c0,-1115.61519 904.38481,-2020 2020,-2020c1115.61519,0 2020,904.38481 2020,2020c0,1115.61519 -904.38481,2020 -2020,2020c-1115.61519,0 -2020,-904.38481 -2020,-2020z"
       fill="url(#color-8)"
       stroke-width="1"
       id="path156" />
    <path
       d="M83980,26000c0,-1115.61519 904.38481,-2020 2020,-2020c1115.61519,0 2020,904.38481 2020,2020c0,1115.61519 -904.38481,2020 -2020,2020c-1115.61519,0 -2020,-904.38481 -2020,-2020z"
       fill="url(#color-9)"
       stroke-width="1"
       id="path158" />
    <path
       d="M58080,17100c0,-1115.61519 904.38481,-2020 2020,-2020c1115.61519,0 2020,904.38481 2020,2020c0,1115.61519 -904.38481,2020 -2020,2020c-1115.61519,0 -2020,-904.38481 -2020,-2020z"
       fill="url(#color-10)"
       stroke-width="1"
       id="path160" />
  </g>
</svg>
